<svg width="10" height="16" viewBox="0 0 10 16" fill="none" xmlns="http://www.w3.org/2000/svg">
<path d="M5.54 6.16C6.43333 6.16 7.21333 6.34667 7.88 6.72C8.56 7.09333 9.08 7.62 9.44 8.3C9.81333 8.96667 10 9.74 10 10.62C10 11.5 9.8 12.2867 9.4 12.98C9 13.66 8.44 14.1933 7.72 14.58C7.01333 14.9533 6.19333 15.14 5.26 15.14C4.43333 15.14 3.62667 14.9933 2.84 14.7C2.05333 14.4067 1.38667 14.0067 0.84 13.5C0.626667 13.3 0.52 13.0733 0.52 12.82C0.52 12.62 0.573333 12.4533 0.68 12.32C0.786667 12.1867 0.913333 12.12 1.06 12.12C1.24667 12.12 1.43333 12.1933 1.62 12.34C2.20667 12.82 2.79333 13.18 3.38 13.42C3.96667 13.6467 4.58 13.76 5.22 13.76C6.20667 13.76 6.98 13.48 7.54 12.92C8.1 12.36 8.38 11.6 8.38 10.64C8.38 9.70667 8.1 8.95333 7.54 8.38C6.98 7.80667 6.22667 7.52 5.28 7.52C4.06667 7.52 3.08 7.98667 2.32 8.92C2.13333 9.12 1.90667 9.22 1.64 9.22C1.45333 9.22 1.29333 9.16667 1.16 9.06C1.04 8.94 0.98 8.78 0.98 8.58V1.68C0.98 1.45333 1.04667 1.26667 1.18 1.12C1.32667 0.973333 1.52667 0.899999 1.78 0.899999H8.82C9.06 0.899999 9.24667 0.959999 9.38 1.08C9.52667 1.2 9.6 1.36667 9.6 1.58C9.6 1.79333 9.52667 1.96 9.38 2.08C9.24667 2.2 9.06 2.26 8.82 2.26H2.6V7.28C2.97333 6.92 3.40667 6.64667 3.9 6.46C4.40667 6.26 4.95333 6.16 5.54 6.16Z" fill="#5BD912"/>
</svg>
