<svg width="11" height="16" viewBox="0 0 11 16" fill="none" xmlns="http://www.w3.org/2000/svg">
<path d="M5.58 6.14C6.43333 6.14 7.19333 6.32667 7.86 6.7C8.52667 7.07333 9.04667 7.6 9.42 8.28C9.79333 8.96 9.98 9.74 9.98 10.62C9.98 11.4867 9.78667 12.2667 9.4 12.96C9.01333 13.6533 8.47333 14.1933 7.78 14.58C7.08667 14.9667 6.30667 15.16 5.44 15.16C3.73333 15.16 2.41333 14.5667 1.48 13.38C0.56 12.1933 0.1 10.5 0.1 8.3C0.1 6.72667 0.313333 5.37333 0.74 4.24C1.16667 3.10667 1.78667 2.24 2.6 1.64C3.41333 1.04 4.38 0.739999 5.5 0.739999C6.26 0.739999 7.01333 0.886666 7.76 1.18C8.52 1.47333 9.16667 1.87333 9.7 2.38C9.92667 2.59333 10.04 2.82 10.04 3.06C10.04 3.26 9.98667 3.42667 9.88 3.56C9.77333 3.69333 9.64667 3.76 9.5 3.76C9.31333 3.76 9.12 3.68667 8.92 3.54C7.76 2.59333 6.63333 2.12 5.54 2.12C4.35333 2.12 3.42667 2.66 2.76 3.74C2.09333 4.82 1.76 6.33333 1.76 8.28V8.54C2.06667 7.79333 2.56 7.20667 3.24 6.78C3.93333 6.35333 4.71333 6.14 5.58 6.14ZM5.36 13.78C6.26667 13.78 6.99333 13.4933 7.54 12.92C8.08667 12.3467 8.36 11.5867 8.36 10.64C8.36 9.69333 8.08 8.94 7.52 8.38C6.97333 7.80667 6.24667 7.52 5.34 7.52C4.42 7.52 3.66667 7.81333 3.08 8.4C2.50667 8.97333 2.22 9.72 2.22 10.64C2.22 11.5733 2.50667 12.3333 3.08 12.92C3.66667 13.4933 4.42667 13.78 5.36 13.78Z" fill="#F4F139"/>
</svg>
