<svg width="10" height="16" viewBox="0 0 10 16" fill="none" xmlns="http://www.w3.org/2000/svg">
<path d="M9.06 0.899999C9.3 0.899999 9.48 0.966666 9.6 1.1C9.73333 1.22 9.8 1.38 9.8 1.58C9.8 1.76667 9.74 1.97333 9.62 2.2L2.98 14.7C2.82 14.9933 2.58667 15.14 2.28 15.14C2.06667 15.14 1.87333 15.0667 1.7 14.92C1.54 14.7733 1.46 14.5933 1.46 14.38C1.46 14.2333 1.50667 14.0867 1.6 13.94L7.84 2.28H0.94C0.7 2.28 0.513333 2.22 0.38 2.1C0.26 1.98 0.2 1.81333 0.2 1.6C0.2 1.37333 0.26 1.2 0.38 1.08C0.513333 0.959999 0.7 0.899999 0.94 0.899999H9.06Z" fill="#E8BD29"/>
</svg>
