<svg width="12" height="16" viewBox="0 0 12 16" fill="none" xmlns="http://www.w3.org/2000/svg">
<path d="M8.44 7.76C9.26667 8.01333 9.90667 8.44667 10.36 9.06C10.8267 9.67333 11.06 10.4067 11.06 11.26C11.06 12.4733 10.62 13.4267 9.74 14.12C8.86 14.8 7.61333 15.14 6 15.14C4.38667 15.14 3.14 14.8 2.26 14.12C1.38 13.4267 0.94 12.4733 0.94 11.26C0.94 10.3933 1.17333 9.65333 1.64 9.04C2.10667 8.42667 2.75333 8 3.58 7.76C2.87333 7.49333 2.31333 7.07333 1.9 6.5C1.48667 5.92667 1.28 5.25333 1.28 4.48C1.28 3.33333 1.69333 2.42667 2.52 1.76C3.36 1.08 4.52 0.739999 6 0.739999C7.48 0.739999 8.63333 1.08 9.46 1.76C10.3 2.42667 10.72 3.33333 10.72 4.48C10.72 5.25333 10.5133 5.93333 10.1 6.52C9.68667 7.09333 9.13333 7.50667 8.44 7.76ZM2.9 4.6C2.9 5.42667 3.16 6.06 3.68 6.5C4.21333 6.94 4.98667 7.16 6 7.16C7.01333 7.16 7.78 6.94 8.3 6.5C8.83333 6.06 9.1 5.42667 9.1 4.6C9.1 3.81333 8.83333 3.2 8.3 2.76C7.78 2.32 7.01333 2.1 6 2.1C4.98667 2.1 4.21333 2.32 3.68 2.76C3.16 3.2 2.9 3.81333 2.9 4.6ZM6 13.78C8.29333 13.78 9.44 12.9067 9.44 11.16C9.44 9.41333 8.29333 8.54 6 8.54C3.70667 8.54 2.56 9.41333 2.56 11.16C2.56 12.9067 3.70667 13.78 6 13.78Z" fill="#D61717"/>
</svg>
