<svg width="19" height="17" viewBox="0 0 19 17" fill="none" xmlns="http://www.w3.org/2000/svg">
<path d="M17.5022 7.14286C17.8177 7.14286 18.0856 7.25595 18.3058 7.48214C18.532 7.70238 18.6451 7.97024 18.6451 8.28571C18.6451 8.60119 18.532 8.87202 18.3058 9.09821C18.0856 9.31845 17.8177 9.42857 17.5022 9.42857H17.3683L16.3415 15.3393C16.2939 15.6131 16.1629 15.8393 15.9487 16.0179C15.7344 16.1964 15.4903 16.2857 15.2165 16.2857H3.78795C3.51414 16.2857 3.27009 16.1964 3.0558 16.0179C2.84152 15.8393 2.71057 15.6131 2.66295 15.3393L1.63616 9.42857H1.50223C1.18676 9.42857 0.915923 9.31845 0.689732 9.09821C0.469494 8.87202 0.359375 8.60119 0.359375 8.28571C0.359375 7.97024 0.469494 7.70238 0.689732 7.48214C0.915923 7.25595 1.18676 7.14286 1.50223 7.14286H17.5022ZM4.68973 14.2857C4.84449 14.2738 4.97247 14.2054 5.07366 14.0804C5.1808 13.9613 5.22842 13.8244 5.21652 13.6696L4.9308 9.95536C4.9189 9.8006 4.85045 9.67262 4.72545 9.57143C4.6064 9.46429 4.46949 9.41667 4.31473 9.42857C4.15997 9.44048 4.02902 9.50893 3.92188 9.63393C3.82068 9.75298 3.77604 9.88988 3.78795 10.0446L4.07366 13.7589C4.08557 13.9077 4.14509 14.0327 4.25223 14.1339C4.36533 14.2351 4.49628 14.2857 4.64509 14.2857H4.68973ZM8.35938 13.7143V10C8.35938 9.84524 8.30283 9.71131 8.18973 9.59821C8.07664 9.48512 7.94271 9.42857 7.78795 9.42857C7.63318 9.42857 7.49926 9.48512 7.38616 9.59821C7.27307 9.71131 7.21652 9.84524 7.21652 10V13.7143C7.21652 13.869 7.27307 14.003 7.38616 14.1161C7.49926 14.2292 7.63318 14.2857 7.78795 14.2857C7.94271 14.2857 8.07664 14.2292 8.18973 14.1161C8.30283 14.003 8.35938 13.869 8.35938 13.7143ZM11.7879 13.7143V10C11.7879 9.84524 11.7314 9.71131 11.6183 9.59821C11.5052 9.48512 11.3713 9.42857 11.2165 9.42857C11.0618 9.42857 10.9278 9.48512 10.8147 9.59821C10.7016 9.71131 10.6451 9.84524 10.6451 10V13.7143C10.6451 13.869 10.7016 14.003 10.8147 14.1161C10.9278 14.2292 11.0618 14.2857 11.2165 14.2857C11.3713 14.2857 11.5052 14.2292 11.6183 14.1161C11.7314 14.003 11.7879 13.869 11.7879 13.7143ZM14.9308 13.7589L15.2165 10.0446C15.2284 9.88988 15.1808 9.75298 15.0737 9.63393C14.9725 9.50893 14.8445 9.44048 14.6897 9.42857C14.535 9.41667 14.3951 9.46429 14.2701 9.57143C14.151 9.67262 14.0856 9.8006 14.0737 9.95536L13.7879 13.6696C13.776 13.8244 13.8207 13.9613 13.9219 14.0804C14.029 14.2054 14.16 14.2738 14.3147 14.2857H14.3594C14.5082 14.2857 14.6362 14.2351 14.7433 14.1339C14.8564 14.0327 14.9189 13.9077 14.9308 13.7589ZM4.60938 2.89286L3.77902 6.57143H2.60045L3.50223 2.63393C3.61533 2.11012 3.88021 1.68452 4.29688 1.35714C4.71354 1.02381 5.18973 0.857142 5.72545 0.857142H7.21652C7.21652 0.70238 7.27307 0.568452 7.38616 0.455357C7.49926 0.342261 7.63318 0.285713 7.78795 0.285713H11.2165C11.3713 0.285713 11.5052 0.342261 11.6183 0.455357C11.7314 0.568452 11.7879 0.70238 11.7879 0.857142H13.279C13.8147 0.857142 14.2909 1.02381 14.7076 1.35714C15.1243 1.68452 15.3891 2.11012 15.5022 2.63393L16.404 6.57143H15.2254L14.3951 2.89286C14.3296 2.63095 14.1927 2.41667 13.9844 2.25C13.782 2.08333 13.5469 2 13.279 2H11.7879C11.7879 2.15476 11.7314 2.28869 11.6183 2.40178C11.5052 2.51488 11.3713 2.57143 11.2165 2.57143H7.78795C7.63318 2.57143 7.49926 2.51488 7.38616 2.40178C7.27307 2.28869 7.21652 2.15476 7.21652 2H5.72545C5.45759 2 5.21949 2.08333 5.01116 2.25C4.80878 2.41667 4.67485 2.63095 4.60938 2.89286Z" fill="white"/>
</svg>
