<svg width="17" height="16" viewBox="0 0 17 16" fill="none" xmlns="http://www.w3.org/2000/svg">
<path d="M16.353 12.6964C16.353 12.8973 16.3158 13.1615 16.2414 13.4888C16.1669 13.8088 16.0888 14.0618 16.007 14.2478C15.8507 14.6198 15.3969 15.0141 14.6454 15.4308C13.946 15.8103 13.254 16 12.5695 16C12.3686 16 12.1714 15.9888 11.978 15.9665C11.7845 15.9368 11.5687 15.8884 11.3306 15.8214C11.1 15.7545 10.9251 15.7024 10.8061 15.6652C10.6945 15.6205 10.4899 15.5424 10.1922 15.4308C9.89462 15.3192 9.71233 15.2522 9.64537 15.2299C8.9162 14.9695 8.26516 14.6607 7.69224 14.3036C6.7473 13.7158 5.76516 12.9122 4.74581 11.8929C3.72647 10.8735 2.9229 9.89137 2.3351 8.94643C1.97796 8.37351 1.66918 7.72247 1.40876 6.9933C1.38644 6.92634 1.31948 6.74405 1.20787 6.44643C1.09626 6.14881 1.01814 5.9442 0.973493 5.83259C0.936291 5.71354 0.884208 5.53869 0.817243 5.30804C0.750279 5.06994 0.701916 4.85417 0.672154 4.66071C0.649833 4.46726 0.638672 4.27009 0.638672 4.0692C0.638672 3.38467 0.828404 2.69271 1.20787 1.9933C1.62454 1.24181 2.01888 0.787946 2.3909 0.631696C2.57692 0.549851 2.82989 0.471726 3.14983 0.397321C3.47721 0.322916 3.74135 0.285713 3.94224 0.285713C4.04641 0.285713 4.12454 0.296874 4.17662 0.319196C4.31055 0.363839 4.50772 0.646577 4.76814 1.16741C4.84998 1.30878 4.96159 1.50967 5.10296 1.77009C5.24433 2.03051 5.37454 2.2686 5.49358 2.48437C5.61263 2.69271 5.72796 2.88988 5.83957 3.07589C5.86189 3.10565 5.92513 3.19866 6.0293 3.35491C6.1409 3.51116 6.22275 3.64509 6.27483 3.7567C6.32692 3.86086 6.35296 3.96503 6.35296 4.0692C6.35296 4.21801 6.24507 4.40402 6.0293 4.62723C5.82096 4.85045 5.59031 5.05506 5.33733 5.24107C5.0918 5.42708 4.86114 5.62426 4.64537 5.83259C4.43704 6.04092 4.33287 6.21205 4.33287 6.34598C4.33287 6.41295 4.35147 6.49851 4.38867 6.60268C4.42587 6.6994 4.45564 6.77381 4.47796 6.82589C4.50772 6.87798 4.5598 6.96726 4.63421 7.09375C4.71605 7.22024 4.7607 7.29092 4.76814 7.3058C5.33361 8.32515 5.98093 9.1994 6.7101 9.92857C7.43927 10.6577 8.31352 11.3051 9.33287 11.8705C9.34775 11.878 9.41843 11.9226 9.54492 12.0045C9.67141 12.0789 9.7607 12.131 9.81278 12.1607C9.86486 12.183 9.93927 12.2128 10.036 12.25C10.1402 12.2872 10.2257 12.3058 10.2927 12.3058C10.4266 12.3058 10.5977 12.2016 10.8061 11.9933C11.0144 11.7775 11.2116 11.5469 11.3976 11.3013C11.5836 11.0484 11.7882 10.8177 12.0114 10.6094C12.2347 10.3936 12.4207 10.2857 12.5695 10.2857C12.6736 10.2857 12.7778 10.3118 12.882 10.3638C12.9936 10.4159 13.1275 10.4978 13.2838 10.6094C13.44 10.7135 13.533 10.7768 13.5628 10.7991C13.7488 10.9107 13.946 11.026 14.1543 11.1451C14.3701 11.2641 14.6082 11.3943 14.8686 11.5357C15.129 11.6771 15.3299 11.7887 15.4713 11.8705C15.9921 12.131 16.2748 12.3281 16.3195 12.4621C16.3418 12.5141 16.353 12.5923 16.353 12.6964Z" fill="white"/>
</svg>
