<svg width="20" height="17" viewBox="0 0 20 17" fill="none" xmlns="http://www.w3.org/2000/svg">
<path d="M20 5.78125V14.6429C20 15.1339 19.8251 15.5543 19.4754 15.904C19.1257 16.2537 18.7054 16.4286 18.2143 16.4286H1.78571C1.29464 16.4286 0.874256 16.2537 0.524554 15.904C0.174851 15.5543 0 15.1339 0 14.6429V5.78125C0.327381 6.14583 0.703125 6.46949 1.12723 6.75223C3.82068 8.58259 5.66964 9.86607 6.67411 10.6027C7.09821 10.9152 7.44048 11.1607 7.70089 11.3393C7.96875 11.5104 8.32217 11.689 8.76116 11.875C9.20015 12.0536 9.60938 12.1429 9.98884 12.1429H10H10.0112C10.3906 12.1429 10.7999 12.0536 11.2388 11.875C11.6778 11.689 12.0275 11.5104 12.2879 11.3393C12.5558 11.1607 12.9018 10.9152 13.3259 10.6027C14.5908 9.6875 16.4435 8.40402 18.8839 6.75223C19.308 6.46205 19.6801 6.13839 20 5.78125ZM20 2.5C20 3.0878 19.8177 3.64955 19.4531 4.18527C19.0885 4.72098 18.6347 5.17857 18.0915 5.55804C15.2939 7.5 13.5528 8.70908 12.8683 9.18527C12.7939 9.23735 12.6339 9.35268 12.3884 9.53125C12.1503 9.70238 11.9494 9.84375 11.7857 9.95536C11.6295 10.0595 11.436 10.1786 11.2054 10.3125C10.9821 10.4464 10.7701 10.5469 10.5692 10.6138C10.3683 10.6808 10.1823 10.7143 10.0112 10.7143H10H9.98884C9.81771 10.7143 9.6317 10.6808 9.4308 10.6138C9.22991 10.5469 9.01414 10.4464 8.78348 10.3125C8.56027 10.1786 8.36682 10.0595 8.20313 9.95536C8.04688 9.84375 7.84598 9.70238 7.60045 9.53125C7.36235 9.35268 7.2061 9.23735 7.1317 9.18527C6.45461 8.70908 5.47991 8.03199 4.20759 7.15402C2.93527 6.2686 2.17262 5.73661 1.91964 5.55804C1.45833 5.24554 1.02307 4.81771 0.613839 4.27455C0.204613 3.72396 0 3.21429 0 2.74554C0 2.16518 0.15253 1.68155 0.457589 1.29464C0.770089 0.907738 1.2128 0.714285 1.78571 0.714285H18.2143C18.6979 0.714285 19.1146 0.889136 19.4643 1.23884C19.8214 1.58854 20 2.00893 20 2.5Z" fill="white"/>
</svg>
