<svg width="19" height="19" viewBox="0 0 19 19" fill="none" xmlns="http://www.w3.org/2000/svg">
<path d="M11.5968 11.6808C12.579 10.6987 13.07 9.51934 13.07 8.14286C13.07 6.76637 12.579 5.59077 11.5968 4.61607C10.6221 3.63393 9.44652 3.14286 8.07003 3.14286C6.69355 3.14286 5.51423 3.63393 4.53209 4.61607C3.55738 5.59077 3.07003 6.76637 3.07003 8.14286C3.07003 9.51934 3.55738 10.6987 4.53209 11.6808C5.51423 12.6555 6.69355 13.1429 8.07003 13.1429C9.44652 13.1429 10.6221 12.6555 11.5968 11.6808ZM18.7843 17.4286C18.7843 17.8155 18.643 18.1503 18.3602 18.433C18.0775 18.7158 17.7427 18.8571 17.3557 18.8571C16.954 18.8571 16.6191 18.7158 16.3513 18.433L12.5232 14.6161C11.1913 15.5387 9.70694 16 8.07003 16C7.00605 16 5.9867 15.7954 5.012 15.3862C4.04474 14.9695 3.20768 14.4115 2.50084 13.7121C1.80143 13.0052 1.2434 12.1682 0.82673 11.2009C0.417504 10.2262 0.212891 9.20684 0.212891 8.14286C0.212891 7.07887 0.417504 6.06324 0.82673 5.09598C1.2434 4.12128 1.80143 3.28423 2.50084 2.58482C3.20768 1.87798 4.04474 1.31994 5.012 0.910713C5.9867 0.494047 7.00605 0.285713 8.07003 0.285713C9.13402 0.285713 10.1496 0.494047 11.1169 0.910713C12.0916 1.31994 12.9287 1.87798 13.6281 2.58482C14.3349 3.28423 14.893 4.12128 15.3022 5.09598C15.7188 6.06324 15.9272 7.07887 15.9272 8.14286C15.9272 9.77976 15.4659 11.2641 14.5432 12.596L18.3714 16.4241C18.6467 16.6994 18.7843 17.0342 18.7843 17.4286Z" fill="#281515"/>
</svg>
